<?xml version="1.0"?>
<svg width="215" height="146" xmlns="http://www.w3.org/2000/svg" xmlns:svg="http://www.w3.org/2000/svg">
 <g class="layer">
  <title>Layer 1</title>
  <path d="m34,94c-4.79,0.68 -9.36,2.07 -14,3.42c-4.08,1.2 -11.76,4.4 -15.79,3.28c-4.18,-1.15 -5.31,-8.02 -2.47,-10.98c2.1,-2.19 17.44,-5.63 21.26,-6.59c2.52,-0.64 6.44,-1.29 7.98,-3.56c1.24,-1.83 1.02,-5.39 1.02,-7.57c0,0 0,-51 0,-51c0.02,-11.21 4.37,-22.91 18,-20.79c5.76,0.9 8.96,4.96 13,8.7c3.43,3.18 17.91,16.39 21,17.92c2.79,1.38 5.97,1.17 9,1.17c0,0 30,0 30,0c2.46,0 5.7,0.13 8,-0.74c5.29,-2.01 17.9,-15.44 23,-19.84c5.76,-4.97 9.77,-9.06 18,-7c10.41,2.59 10.51,12.18 11.09,20.58c0,0 0.91,12 0.91,12c0,0 0,17 0,17c0,0 -1,23 -1,23c0.02,2.4 -0.22,5.43 1.6,7.28c1.73,1.76 6.92,2.73 9.4,3.35c0,0 21,5.37 21,5.37c0,2.86 0.51,8.3 -1.6,10.4c-2.37,2.37 -6.56,1.3 -9.4,0.6c-7.7,-1.93 -13.94,-4.34 -21.8,-5c-0.22,1.38 -0.43,3.03 0,4.32c1.38,2.48 5.37,4.22 7.8,5.23c3.9,1.61 18.1,6.68 20.4,9.15c2.89,3.09 1.41,13.23 -4.44,12.54c-2.52,-0.29 -8.25,-3.61 -10.96,-4.8c0,0 -21,-8.44 -21,-8.44c0.18,1.58 0.05,2.39 0.9,3.91c1.8,3.24 14.28,10.97 18.04,14.41c3.19,2.93 5.63,8.26 2.13,12.08c-2.64,2.87 -7.52,0.3 -10.07,-1.39c-4.99,-3.31 -17.07,-15.18 -23,-13.23c0,0 -10,6.13 -10,6.13c-2.74,1.61 -8.88,4.04 -12,5.15c-8.02,2.86 -24.55,5.23 -33,4.9c0,0 -8,-0.87 -8,-0.87c0,0 -10,-0.71 -10,-0.71c-7.77,-1.39 -16.94,-5.09 -24,-8.63c-2.83,-1.42 -9.53,-5.83 -12,-5.94c-5.01,-0.21 -17.17,10.1 -22,13.14c-4.92,3.1 -9.25,5.28 -11.84,-1.95c-1.76,-4.95 1.31,-6.91 4.84,-9.63c6.18,-4.75 13.92,-9.6 19,-15.37c-7.09,-1.08 -18.5,5.03 -25,8.25c-3.04,1.5 -8.32,4.93 -11.44,2.14c-2.52,-2.26 -2.26,-9.06 -2.56,-12.39c0,0 18,-7.18 18,-7.18c0,0 10.4,-5.23 10.4,-5.23c0,0 1.6,-6.59 1.6,-6.59zm35,-28.67c-24.5,5.85 -19.01,45.84 6,41.34c21.81,-3.92 18.66,-43.52 -6,-41.34zm73,0c-21.9,5.36 -19.01,40.58 1,41.63c27.78,1.45 25.83,-44.01 -1,-41.63zm-71,6.59c9.95,-0.57 10.09,8.67 10,16.08c-0.07,5.13 -1.11,11 -7.02,12.45c-5.75,1.41 -8.59,-3.76 -9.74,-8.45c-1.83,-7.48 -0.87,-16.5 6.76,-20.08zm73.01,-0.08c14.14,-1.22 12.15,25.85 3.95,28.52c-4.94,1.6 -8.76,-3.19 -10.02,-7.36c-2.25,-7.47 -1.54,-17.29 6.07,-21.16z" fill="#000000" id="Selection" stroke="black"/>
 </g>
</svg>